<?xml version="1.0" standalone="no"?>
<!DOCTYPE svg PUBLIC "-//W3C//DTD SVG 20010904//EN"
 "http://www.w3.org/TR/2001/REC-SVG-20010904/DTD/svg10.dtd">
<svg version="1.0" xmlns="http://www.w3.org/2000/svg"
 width="500.000000pt" height="500.000000pt" viewBox="0 0 500.000000 500.000000"
 preserveAspectRatio="xMidYMid meet">
<metadata>
Created by potrace 1.14, written by Peter Selinger 2001-2017
</metadata>
<g transform="translate(0.000000,500.000000) scale(0.100000,-0.100000)"
fill="#000000" stroke="none">
<path d="M1289 4665 c-4 -5 -10 -24 -13 -40 -12 -58 -75 -125 -161 -172 -88
-49 -176 -128 -206 -185 -18 -36 -22 -38 -67 -38 -108 0 -219 -50 -318 -143
-102 -95 -144 -174 -165 -310 -35 -226 125 -578 347 -761 202 -167 492 -222
679 -129 70 34 142 107 176 178 74 153 12 308 -168 421 -32 20 -79 52 -106 71
l-47 35 35 40 c47 55 62 127 46 227 -6 41 -21 90 -33 109 -24 38 -72 72 -105
72 -14 0 -30 14 -49 44 -24 38 -67 73 -150 122 -14 8 -4 10 42 6 42 -3 84 2
138 17 188 52 272 129 306 282 17 77 9 91 -22 38 -29 -49 -90 -103 -143 -125
-53 -22 -56 -18 -29 34 22 42 25 59 22 133 -2 46 -6 80 -9 74z m-31 -203 c-26
-51 -26 -51 -129 -87 -42 -14 -106 -46 -143 -69 -39 -26 -62 -37 -56 -26 20
37 133 131 201 166 49 26 83 53 108 84 l36 46 3 -34 c2 -22 -5 -51 -20 -80z
m192 39 c0 -5 -7 -17 -16 -25 -8 -9 -13 -20 -9 -25 7 -13 -32 -81 -62 -107
-14 -12 -43 -31 -66 -43 -32 -17 -42 -19 -49 -9 -6 10 -8 8 -8 -4 0 -10 -2
-18 -4 -18 -2 0 -13 -3 -23 -6 -15 -5 -15 -4 -3 5 9 7 11 11 3 11 -7 0 -16 -7
-21 -17 -6 -10 -16 -14 -26 -10 -10 4 -15 3 -11 -3 3 -6 -2 -10 -12 -11 -10
-1 -64 -4 -121 -8 -56 -3 -102 -3 -102 1 0 10 132 96 173 113 20 8 79 26 132
40 93 24 157 57 199 104 21 23 26 25 26 12z m-485 -330 c50 -23 102 -66 126
-105 17 -29 17 -30 -2 -58 l-21 -29 -31 32 c-18 17 -44 37 -58 45 -34 17 -141
35 -132 21 3 -5 0 -8 -8 -5 -7 2 -25 -6 -38 -18 -14 -13 -28 -21 -33 -18 -4 3
-8 -1 -8 -9 0 -7 -8 -22 -18 -33 -10 -11 -17 -24 -15 -31 2 -6 -2 -17 -10 -24
-20 -21 -3 -158 27 -225 33 -71 95 -130 161 -150 51 -16 56 -16 99 0 26 10 59
33 74 52 l29 35 16 -25 c9 -13 27 -28 39 -32 13 -4 43 -23 67 -43 24 -19 84
-62 134 -96 124 -82 170 -147 175 -244 4 -58 0 -78 -21 -125 -48 -103 -143
-175 -266 -198 -65 -12 -175 -6 -196 12 -8 6 -18 9 -24 6 -5 -3 -22 -1 -38 6
-15 6 -31 11 -35 10 -5 -1 -8 3 -8 10 0 6 -3 8 -7 5 -3 -4 -15 1 -26 10 -11
10 -17 12 -13 5 6 -10 2 -10 -18 -1 -14 7 -23 16 -19 22 3 6 1 7 -5 3 -14 -8
-116 57 -137 88 -9 11 -19 20 -23 19 -4 0 -6 3 -5 8 2 5 -2 8 -9 6 -6 -1 -17
9 -25 23 -7 14 -13 21 -13 16 0 -5 -10 4 -22 20 -13 16 -22 32 -21 36 2 5 -1
8 -6 8 -5 0 -17 12 -26 27 -16 24 -16 26 -1 20 10 -4 15 -3 11 3 -3 6 -13 10
-20 10 -20 0 -49 57 -32 63 7 3 5 6 -5 6 -23 1 -34 21 -17 32 11 7 11 9 -3 9
-23 0 -32 18 -17 36 6 8 9 17 5 21 -3 3 -6 1 -6 -5 0 -7 -5 -12 -11 -12 -6 0
-8 7 -5 16 4 9 2 13 -5 8 -7 -4 -10 -1 -7 7 3 8 -1 20 -9 27 -7 7 -13 19 -13
25 0 7 4 6 10 -3 6 -9 10 -10 10 -3 0 6 -7 19 -16 28 -9 8 -13 22 -10 31 4 10
2 13 -6 8 -8 -5 -9 0 -5 16 3 13 1 30 -5 37 -13 16 -15 174 -2 194 5 8 7 22 5
33 -1 11 2 16 8 12 7 -4 8 -1 5 8 -3 9 -2 16 4 16 5 0 13 7 16 16 3 8 2 12 -4
9 -6 -3 -7 1 -4 9 3 9 10 16 16 16 5 0 6 5 3 10 -3 6 1 13 9 16 9 3 14 10 11
14 -3 5 3 13 12 19 10 6 14 11 10 11 -4 0 15 24 44 53 28 28 54 50 57 49 3 -2
9 3 14 12 5 9 13 14 18 11 4 -3 11 2 14 11 3 9 13 14 20 11 8 -3 17 1 20 10 4
8 13 13 21 9 8 -3 15 -1 15 5 0 6 7 8 16 5 10 -4 13 -2 8 6 -5 7 1 9 20 4 15
-4 26 -2 26 4 0 17 121 11 165 -9z m14 -131 c22 -11 53 -36 69 -56 l30 -36 17
31 c46 90 173 49 204 -66 17 -61 13 -172 -8 -218 -48 -103 -132 -122 -168 -37
-14 34 -17 35 -27 18 -59 -100 -139 -130 -225 -86 -123 62 -178 243 -113 371
47 94 132 125 221 79z"/>
<path d="M820 4135 l-21 -22 78 -5 c47 -3 92 -12 113 -23 l35 -18 -18 21 c-23
25 -69 48 -124 60 -37 9 -44 7 -63 -13z"/>
<path d="M970 3511 c0 -18 61 -33 120 -29 64 5 80 12 63 29 -8 8 -25 8 -62 -2
-39 -10 -56 -10 -76 -1 -31 14 -45 15 -45 3z"/>
<path d="M1290 3391 c0 -6 9 -16 20 -24 21 -14 21 -15 -4 -44 -28 -33 -83 -53
-147 -53 -49 0 -209 34 -237 49 -16 9 -16 10 0 16 18 7 13 35 -6 35 -24 0 -56
-41 -56 -70 0 -35 13 -39 27 -8 9 21 12 18 37 -32 34 -68 82 -119 157 -165 77
-47 160 -75 224 -75 82 0 94 34 42 112 -17 24 -22 40 -16 51 5 8 12 50 16 93
5 67 8 75 19 59 21 -28 29 -9 10 20 -22 33 -86 60 -86 36z"/>
<path d="M1015 2920 c-3 -6 1 -7 9 -4 18 7 21 14 7 14 -6 0 -13 -4 -16 -10z"/>
<path d="M1110 2900 c8 -5 24 -10 34 -10 26 0 18 6 -19 14 -22 5 -26 4 -15 -4z"/>
<path d="M920 3850 c-43 -43 -12 -161 45 -176 38 -9 70 3 83 31 23 49 13 95
-31 143 -26 28 -70 29 -97 2z"/>
<path d="M1144 3805 c-18 -43 -11 -85 17 -111 19 -17 23 -17 47 -3 61 34 49
141 -16 147 -29 3 -34 0 -48 -33z"/>
<path d="M1481 4468 c0 -9 -4 -25 -7 -35 -5 -17 -5 -17 6 0 6 10 9 25 7 35 -4
15 -5 15 -6 0z"/>
<path d="M572 4309 c-24 -12 -41 -23 -38 -26 2 -2 26 7 53 21 58 30 46 35 -15
5z"/>
<path d="M651 4298 c-86 -24 -171 -101 -222 -200 -25 -49 -19 -48 14 1 62 93
162 165 274 196 l48 13 -40 0 c-22 0 -55 -4 -74 -10z"/>
<path d="M2422 4092 c-16 -11 67 -72 97 -72 27 0 27 13 -1 50 -22 30 -66 40
-96 22z"/>
<path d="M3011 4033 l-73 -4 7 -203 c7 -198 7 -203 -13 -208 -22 -6 -20 -21
-38 300 -4 74 -10 112 -18 112 -6 0 -28 -3 -48 -6 l-38 -7 6 -91 5 -91 -34 90
-34 90 -49 0 c-46 0 -49 -2 -49 -25 0 -14 4 -114 9 -222 l8 -198 50 0 50 0 -4
90 c-2 50 -3 90 -2 90 1 0 11 -28 23 -62 45 -129 39 -121 86 -116 37 5 43 2
58 -24 16 -27 16 -35 2 -95 -25 -107 -36 -110 -33 -8 2 78 0 90 -15 93 -9 2
-20 -3 -23 -12 -4 -11 -14 -13 -34 -10 -15 4 -37 1 -50 -6 -32 -17 -60 -86
-60 -150 0 -69 19 -100 61 -100 l30 0 -26 -27 c-15 -16 -34 -41 -42 -58 -20
-37 -23 -116 -4 -138 18 -23 74 -22 94 1 25 27 46 97 54 175 5 55 13 79 38
117 19 29 37 72 44 110 7 34 15 59 19 55 3 -3 5 -42 3 -86 -2 -65 0 -84 15
-100 24 -27 50 -24 75 10 19 26 24 28 36 15 23 -22 52 -17 81 16 27 29 28 29
40 10 18 -29 46 -25 77 11 l26 32 20 -22 c24 -26 31 -26 60 -2 17 14 29 16 41
10 22 -12 25 -7 49 92 19 74 45 149 52 149 1 0 -1 -30 -7 -67 -7 -55 -6 -75 7
-106 14 -33 20 -38 44 -35 20 2 35 15 53 41 13 21 26 34 28 28 2 -6 17 -18 33
-26 25 -13 33 -13 61 -1 18 7 43 25 56 39 24 25 55 111 45 121 -15 15 -31 3
-37 -28 -7 -38 -37 -81 -68 -97 -18 -9 -24 -8 -35 7 -20 28 -16 44 13 44 15 0
38 12 55 29 24 24 29 38 29 75 0 78 -56 110 -114 65 -36 -29 -52 -62 -65 -144
-11 -65 -34 -116 -46 -103 -3 2 -1 29 5 58 21 111 9 170 -35 170 -17 0 -31
-11 -49 -42 l-24 -41 -4 34 c-2 24 -9 35 -22 37 -28 6 -36 -15 -36 -103 0 -64
-5 -90 -24 -130 l-24 -50 -1 118 c-1 99 -4 119 -17 124 -25 9 -41 -21 -49 -90
-9 -82 -21 -128 -40 -152 -15 -18 -16 -11 -11 103 6 127 2 140 -35 107 -28
-26 -67 -10 -75 32 -6 34 -8 35 -45 31 -36 -3 -39 -2 -39 22 0 14 -3 35 -6 48
-6 20 -3 22 28 22 19 0 37 2 39 4 3 3 3 23 1 45 -4 39 -6 41 -38 41 -33 0 -34
1 -34 40 0 33 3 40 19 40 41 0 51 11 51 56 0 40 -2 44 -22 42 -13 -1 -56 -4
-97 -5z m759 -367 c0 -38 -33 -87 -48 -71 -14 15 15 105 33 105 10 0 15 -11
15 -34z m-680 -122 c-11 -21 -24 -69 -29 -106 -15 -105 -30 -119 -31 -27 0 64
-4 80 -25 109 -38 51 -33 59 38 62 34 2 63 3 64 2 1 0 -6 -18 -17 -40z m103
14 c7 -21 -12 -136 -28 -168 -27 -52 -38 -37 -32 43 3 39 11 87 17 105 12 32
34 43 43 20z m-378 -132 c-7 -57 -33 -126 -48 -126 -14 0 -1 111 18 156 21 51
38 35 30 -30z m-25 -340 c-7 -18 -16 -26 -28 -24 -26 6 -22 77 9 119 l24 34 3
-51 c2 -27 -2 -63 -8 -78z"/>
<path d="M2409 4003 c-2 -12 3 -150 10 -307 l6 -139 94 2 c52 1 98 4 101 6 3
2 4 23 2 47 l-4 43 -39 -3 c-33 -4 -39 -1 -39 16 0 11 -3 34 -6 51 -6 30 -6
31 30 31 l36 0 0 45 c0 45 0 45 -35 45 -34 0 -35 1 -35 40 0 39 1 40 35 40 35
0 35 0 35 45 l0 45 -95 0 c-52 0 -95 -3 -96 -7z"/>
<path d="M2210 3974 c-6 -14 -10 -52 -10 -85 0 -32 -4 -59 -9 -59 -5 0 -14 36
-22 80 l-13 80 -73 0 -73 0 0 -68 c0 -116 13 -370 19 -380 3 -6 27 -8 53 -5
l46 5 -4 117 -4 116 21 -100 c20 -98 20 -99 1 -135 -11 -19 -22 -51 -26 -71
-5 -30 -12 -38 -39 -45 -43 -13 -43 -40 -1 -36 l32 3 3 -124 c3 -106 7 -128
23 -146 26 -29 50 -26 79 9 22 25 27 27 37 15 21 -26 67 -18 91 15 22 29 23
29 36 10 31 -44 80 -10 114 80 13 34 17 56 10 63 -15 15 -30 0 -41 -41 -5 -21
-17 -46 -25 -57 -15 -18 -16 -11 -11 103 6 130 0 145 -39 102 -13 -15 -22 -17
-36 -10 -44 24 -100 -29 -119 -113 -22 -104 -33 -137 -46 -148 -12 -10 -14 4
-14 80 0 51 5 112 11 136 10 39 16 46 48 55 20 5 42 10 49 10 14 0 17 26 3 34
-4 3 -22 1 -40 -4 -29 -8 -31 -7 -31 18 0 15 7 39 14 54 8 16 21 83 28 150
l13 123 6 -110 c4 -60 7 -118 8 -127 1 -15 11 -18 52 -18 l52 0 -6 93 c-4 50
-10 152 -13 225 l-7 132 -69 0 c-64 0 -69 -2 -78 -26z m138 -606 c22 -29 -20
-198 -50 -198 -14 0 -5 130 12 178 13 34 22 39 38 20z"/>
<path d="M1773 3973 c-17 -3 -23 -11 -23 -31 0 -15 -7 -103 -15 -197 -21 -249
-26 -227 43 -223 l57 3 3 43 c2 33 7 42 21 42 14 0 20 -10 25 -40 l6 -40 61 0
c53 0 60 2 55 18 -2 9 -21 100 -40 202 -20 102 -38 195 -41 208 -5 20 -11 22
-68 21 -34 -1 -72 -4 -84 -6z m92 -232 c6 -45 5 -51 -12 -51 -16 0 -18 7 -14
77 4 83 12 75 26 -26z"/>
<path d="M1423 3908 c4 -29 9 -131 13 -225 l7 -173 60 0 60 0 -7 100 c-6 83
-4 100 7 100 18 0 27 -43 27 -126 0 -34 3 -65 8 -67 4 -2 28 -2 55 1 l47 4 0
57 c-1 86 -15 142 -40 161 -22 17 -22 17 -3 22 42 11 36 145 -7 180 -18 15
-41 18 -127 18 l-105 0 5 -52z m155 -67 c3 -32 -11 -61 -24 -49 -3 4 -8 25
-11 48 -5 37 -4 42 13 38 13 -2 20 -13 22 -37z"/>
<path d="M3337 3814 c-12 -13 -8 -52 7 -57 21 -8 49 16 44 39 -3 19 -38 31
-51 18z"/>
<path d="M3522 2881 c-10 -6 -11 -22 -2 -77 19 -125 19 -124 50 -124 20 0 29
6 34 23 8 29 8 116 0 156 -6 27 -11 31 -38 31 -17 0 -37 -4 -44 -9z"/>
<path d="M2241 2782 c-52 -28 -73 -74 -69 -152 6 -108 49 -146 158 -138 52 4
66 9 92 36 28 27 32 39 36 94 5 105 -42 167 -135 175 -34 3 -58 -1 -82 -15z
m108 -78 c40 -51 18 -144 -34 -144 -33 0 -55 36 -55 87 0 30 6 49 20 63 27 27
44 25 69 -6z"/>
<path d="M3245 2795 c-5 -2 -22 -6 -37 -9 -34 -8 -62 -48 -53 -76 8 -24 45
-45 98 -54 29 -5 37 -11 35 -24 -4 -19 -60 -23 -112 -8 -28 9 -28 8 -21 -25 4
-19 9 -36 12 -39 3 -3 39 -5 82 -5 97 0 131 18 131 70 0 39 -16 51 -89 70 -25
6 -46 16 -49 23 -5 17 46 26 84 14 33 -10 34 -10 34 19 0 22 -6 32 -26 39 -24
10 -68 12 -89 5z"/>
<path d="M2015 2773 c-31 -8 -38 -19 -30 -53 6 -28 10 -31 35 -25 25 6 28 3
34 -32 3 -21 6 -73 6 -116 l0 -78 43 3 42 3 0 75 c-1 41 -4 110 -9 153 l-8 77
-46 -1 c-26 -1 -56 -3 -67 -6z"/>
<path d="M2976 2749 l-26 -31 0 27 c0 25 -2 26 -42 23 -41 -3 -43 -5 -46 -38
-2 -19 -1 -72 3 -117 l7 -83 45 0 45 0 -7 64 c-9 78 4 109 43 104 35 -4 52
-39 52 -106 l0 -53 43 3 42 3 -2 63 c-2 79 -18 126 -50 152 -38 30 -76 26
-107 -11z"/>
<path d="M2643 2749 c-29 -8 -33 -14 -33 -43 0 -44 6 -48 43 -25 33 20 82 25
91 10 8 -12 -12 -26 -62 -40 -77 -22 -106 -77 -62 -121 31 -31 76 -26 111 11
l29 31 0 -27 c0 -25 2 -26 43 -23 41 3 42 4 40 38 -7 154 -29 191 -114 196
-30 2 -69 -1 -86 -7z m103 -124 c8 -21 -15 -47 -39 -43 -27 4 -32 22 -12 42
21 20 44 21 51 1z"/>
<path d="M3540 2645 c-16 -19 -5 -61 18 -67 31 -8 62 9 62 35 0 13 -5 28 -12
35 -17 17 -53 15 -68 -3z"/>
<path d="M3641 2214 c-25 -21 -51 -74 -51 -106 0 -24 81 10 112 46 9 11 17 36
18 54 0 27 -3 32 -24 32 -14 0 -38 -12 -55 -26z"/>
<path d="M3495 2039 c-11 -17 26 -49 57 -49 39 0 36 24 -6 44 -40 19 -43 19
-51 5z"/>
<path d="M1932 1783 c-25 -10 -34 -53 -17 -79 12 -19 24 -24 55 -24 44 0 70
20 70 55 0 40 -61 67 -108 48z"/>
<path d="M2273 1750 c-127 -26 -196 -118 -197 -262 0 -61 5 -85 25 -124 56
-108 222 -130 285 -37 l19 28 5 -40 5 -40 63 -3 62 -3 0 118 c0 158 -2 163
-55 163 -23 0 -56 -3 -73 -6 -30 -6 -30 -7 -25 -59 5 -48 3 -56 -20 -79 -31
-31 -84 -35 -116 -8 -51 41 -45 170 11 217 43 36 109 35 171 -5 53 -33 49 -37
61 57 5 36 3 45 -16 57 -19 12 -139 39 -158 35 -3 -1 -24 -5 -47 -9z"/>
<path d="M356 1688 c-3 -35 -7 -142 -8 -238 l-3 -175 69 -3 c38 -2 73 1 77 5
4 4 3 38 -3 75 -14 79 -3 114 39 124 26 7 98 -4 136 -21 16 -7 18 -2 15 46
l-3 54 -73 -4 c-80 -3 -122 13 -122 49 0 62 168 68 219 7 28 -35 41 -20 41 47
0 103 14 96 -195 96 l-183 0 -6 -62z"/>
<path d="M1613 1688 c-8 -39 -11 -43 -41 -46 -32 -3 -33 -4 -30 -45 3 -40 5
-42 37 -45 l33 -3 -7 -73 c-8 -88 5 -143 41 -176 21 -20 38 -25 97 -28 40 -2
84 1 100 7 24 9 27 15 27 60 l0 50 -53 -6 c-70 -7 -79 4 -75 94 l3 68 60 5 60
5 0 40 0 40 -60 5 -60 5 0 40 0 40 -62 3 -62 3 -8 -43z"/>
<path d="M885 1637 c-84 -33 -117 -84 -117 -178 0 -124 73 -189 211 -188 42 0
92 5 111 12 32 11 35 16 38 56 5 70 0 75 -54 46 -26 -14 -64 -25 -84 -25 -41
0 -103 36 -108 63 -3 15 0 15 39 2 55 -20 85 -19 136 4 49 23 63 45 63 101 0
32 -6 48 -28 70 -46 46 -141 63 -207 37z m109 -93 c40 -39 -7 -95 -66 -78 -17
5 -36 17 -42 27 -9 15 -6 23 17 43 32 28 69 31 91 8z"/>
<path d="M1263 1639 c-47 -11 -93 -57 -93 -93 0 -48 53 -89 153 -116 55 -15
70 -36 41 -57 -25 -19 -105 -10 -151 17 -19 11 -39 18 -44 15 -5 -4 -9 -28 -9
-55 0 -64 15 -72 142 -78 146 -7 218 27 218 101 0 59 -28 82 -145 118 -72 22
-82 31 -59 53 20 20 74 20 121 1 19 -8 39 -15 44 -15 5 0 9 22 9 49 0 35 -4
51 -15 55 -31 11 -171 15 -212 5z"/>
<path d="M1934 1641 c-20 -9 -22 -19 -29 -153 -4 -79 -5 -159 -3 -178 l3 -35
65 0 65 0 0 177 c0 97 -3 180 -7 183 -11 11 -73 15 -94 6z"/>
<path d="M2613 1643 c-19 -4 -22 -13 -28 -86 -3 -45 -5 -127 -3 -182 l3 -100
70 0 69 0 -3 95 c-2 90 -1 97 23 123 29 32 79 36 127 11 17 -8 32 -14 34 -12
1 2 5 30 9 64 8 73 -4 89 -69 89 -48 0 -76 -20 -106 -75 l-19 -35 2 49 c2 41
-1 51 -17 57 -21 8 -56 9 -92 2z"/>
<path d="M3030 1641 c-20 -4 -41 -11 -48 -15 -12 -7 -18 -116 -7 -116 3 0 23
9 43 19 52 26 102 34 135 22 56 -22 25 -49 -78 -66 -108 -18 -160 -89 -124
-168 14 -32 49 -47 106 -47 41 0 50 4 84 41 l38 41 3 -39 3 -38 65 0 65 0 -3
124 c-4 199 -35 241 -177 247 -38 2 -86 -1 -105 -5z m148 -204 c2 -10 -4 -29
-13 -43 -13 -21 -23 -25 -53 -22 -29 2 -38 8 -40 25 -5 33 32 65 71 61 21 -2
33 -9 35 -21z"/>
<path d="M3388 1643 c-23 -6 -30 -73 -26 -238 l3 -130 61 -3 c51 -2 63 0 68
15 4 10 4 91 0 181 -7 161 -7 164 -31 173 -25 9 -46 10 -75 2z"/>
<path d="M3568 1643 c-24 -6 -29 -43 -31 -218 l-2 -150 68 -3 67 -3 0 104 c0
90 3 108 21 131 31 39 83 37 110 -6 17 -28 20 -46 17 -128 l-3 -95 68 -3 67
-3 0 114 c0 159 -26 226 -101 257 -47 20 -98 4 -142 -43 l-39 -42 7 41 c6 40
6 41 -26 48 -34 6 -54 6 -81 -1z"/>
<path d="M4103 1640 c-96 -30 -146 -148 -109 -253 30 -82 91 -117 206 -116 41
0 91 5 110 12 32 11 35 16 38 56 5 70 0 75 -54 46 -26 -14 -64 -25 -84 -25
-41 0 -103 36 -108 62 -3 14 1 15 35 2 53 -19 90 -17 138 6 62 30 82 89 50
150 -9 16 -29 37 -47 46 -38 20 -131 27 -175 14z m112 -100 c40 -44 -23 -96
-82 -68 -35 17 -40 41 -14 67 27 27 73 27 96 1z"/>
<path d="M4483 1641 c-47 -12 -82 -38 -89 -66 -14 -56 20 -106 85 -125 122
-37 146 -56 100 -81 -28 -15 -98 -5 -148 20 -21 11 -41 17 -45 14 -3 -4 -6
-30 -6 -59 l0 -52 50 -11 c140 -30 274 -3 300 59 27 66 -7 109 -112 141 -40
13 -80 29 -88 37 -13 12 -13 15 4 28 26 18 77 18 123 -1 19 -8 39 -15 44 -15
14 0 10 86 -4 99 -17 14 -172 23 -214 12z"/>
</g>
</svg>
